<svg width="24" height="24" viewBox="0 0 24 24" fill="none" xmlns="http://www.w3.org/2000/svg">
<g clip-path="url(#clip0)">
<path d="M5.23825 0.383856C4.2993 -0.135115 3.19686 -0.123116 2.26392 0.391355L13.1983 10.4783L16.8716 6.80499L5.23825 0.383856Z" fill="white"/>
<path d="M1.17046 1.42328C0.90348 1.85975 0.750488 2.35923 0.750488 2.8887V21.1067C0.750488 21.6196 0.88998 22.1086 1.14197 22.5361L12.1378 11.5402L1.17046 1.42328Z" fill="white"/>
<path d="M21.7419 9.49272L18.2381 7.55933L14.3008 11.4951L19.126 15.9454L21.7434 14.5009C22.6853 13.979 23.2493 13.043 23.2493 11.9961C23.2478 10.9491 22.6853 10.0132 21.7419 9.49272Z" fill="white"/>
<path d="M13.2402 12.5573L2.21436 23.5831C2.69283 23.8561 3.2178 24.0001 3.74577 24.0001C4.25574 24.0001 4.76871 23.8711 5.23818 23.6116L17.743 16.7105L13.2402 12.5573Z" fill="white"/>
</g>
<defs>
<clipPath id="clip0">
<rect width="24" height="24" fill="white"/>
</clipPath>
</defs>
</svg>
