<svg width="14" height="16" viewBox="0 0 14 16" fill="none" xmlns="http://www.w3.org/2000/svg">
<path d="M13.2001 8.0088C13.2001 8.46372 13.0569 8.92039 12.7706 9.28608C12.7169 9.35781 12.4663 9.65351 12.2694 9.84598L12.162 9.95096C10.6586 11.5449 6.918 13.942 5.02084 14.7101C5.02084 14.7276 3.89328 15.1843 3.35635 15.2001H3.28476C2.46146 15.2001 1.69186 14.7469 1.29811 14.012C1.08334 13.6078 0.886461 12.4355 0.868564 12.4198C0.707484 11.3682 0.600098 9.75849 0.600098 7.9913C0.600098 6.13837 0.707484 4.45691 0.904359 3.42459C0.904359 3.4071 1.10123 2.46226 1.22652 2.14732C1.42339 1.69414 1.78135 1.30746 2.22879 1.0625C2.58675 0.889283 2.9626 0.800049 3.35635 0.800049C3.768 0.819295 4.5376 1.08 4.84186 1.20248C6.8464 1.97235 10.6765 4.49191 12.1441 6.03164C12.3947 6.2766 12.6632 6.5758 12.7348 6.64403C13.039 7.02897 13.2001 7.50139 13.2001 8.0088Z" fill="white"/>
</svg>
