<svg width="32" height="32" viewBox="0 0 32 32" fill="none" xmlns="http://www.w3.org/2000/svg">
<path opacity="0.2" d="M0.25 16C0.25 7.30151 7.30151 0.25 16 0.25C24.6985 0.25 31.75 7.30151 31.75 16C31.75 24.6985 24.6985 31.75 16 31.75C7.30151 31.75 0.25 24.6985 0.25 16Z" stroke="#E8E8E8" stroke-width="0.5"/>
<path opacity="0.2" d="M16.8369 21.2504C16.8369 21.2504 17.1449 21.2168 17.3027 21.0505C17.4471 20.8981 17.4421 20.6105 17.4421 20.6105C17.4421 20.6105 17.4229 19.2675 18.0581 19.0693C18.6841 18.8742 19.488 20.368 20.3411 20.9423C20.9855 21.3766 21.4746 21.2816 21.4746 21.2816L23.7543 21.2504C23.7543 21.2504 24.9463 21.1783 24.3812 20.2582C24.3344 20.1828 24.0515 19.5773 22.6867 18.3335C21.2568 17.0315 21.4488 17.2421 23.17 14.9896C24.2184 13.618 24.6374 12.7806 24.5064 12.4225C24.382 12.08 23.6107 12.171 23.6107 12.171L21.0448 12.1866C21.0448 12.1866 20.8544 12.1612 20.7134 12.2439C20.5756 12.325 20.4863 12.5143 20.4863 12.5143C20.4863 12.5143 20.0806 13.5754 19.5389 14.4783C18.3962 16.3825 17.9396 16.4833 17.7526 16.3653C17.3177 16.0892 17.4262 15.2576 17.4262 14.6668C17.4262 12.8207 17.7117 12.0514 16.8711 11.8523C16.5923 11.7859 16.387 11.7425 15.6733 11.7351C14.7576 11.7261 13.9829 11.7384 13.5439 11.9489C13.2517 12.0891 13.0263 12.4021 13.1641 12.4201C13.3335 12.4422 13.7175 12.5217 13.9212 12.7937C14.1841 13.1452 14.1749 13.9335 14.1749 13.9335C14.1749 13.9335 14.326 16.1064 13.8218 16.376C13.4762 16.5612 13.0021 16.1834 11.9829 14.4554C11.4612 13.5705 11.0672 12.5921 11.0672 12.5921C11.0672 12.5921 10.9913 12.4094 10.8552 12.3111C10.6907 12.1923 10.4612 12.1554 10.4612 12.1554L8.02294 12.171C8.02294 12.171 7.65649 12.1808 7.5221 12.3373C7.40273 12.4758 7.51292 12.7634 7.51292 12.7634C7.51292 12.7634 9.42195 17.1478 11.5839 19.3577C13.5664 21.3832 15.8168 21.2504 15.8168 21.2504H16.8369Z" fill="#CACACA"/>
</svg>
