<svg width="32" height="32" viewBox="0 0 32 32" fill="none" xmlns="http://www.w3.org/2000/svg">
<path opacity="0.2" d="M0.25 16C0.25 7.30151 7.30151 0.25 16 0.25C24.6985 0.25 31.75 7.30151 31.75 16C31.75 24.6985 24.6985 31.75 16 31.75C7.30151 31.75 0.25 24.6985 0.25 16Z" stroke="#E8E8E8" stroke-width="0.5"/>
<path opacity="0.2" fill-rule="evenodd" clip-rule="evenodd" d="M22.6679 10.4996C23.4023 10.7011 23.9806 11.2949 24.1768 12.0489C24.5335 13.4154 24.5335 16.2667 24.5335 16.2667C24.5335 16.2667 24.5335 19.1179 24.1768 20.4846C23.9806 21.2386 23.4023 21.8323 22.6679 22.0339C21.3371 22.4001 16.0002 22.4001 16.0002 22.4001C16.0002 22.4001 10.6632 22.4001 9.3323 22.0339C8.59795 21.8323 8.01962 21.2386 7.82335 20.4846C7.4668 19.1179 7.4668 16.2667 7.4668 16.2667C7.4668 16.2667 7.4668 13.4154 7.82335 12.0489C8.01962 11.2949 8.59795 10.7011 9.3323 10.4996C10.6632 10.1334 16.0002 10.1334 16.0002 10.1334C16.0002 10.1334 21.3371 10.1334 22.6679 10.4996ZM14.4002 13.8665V19.1998L18.6668 16.5332L14.4002 13.8665Z" fill="#CACACA"/>
</svg>
